<svg xmlns="http://www.w3.org/2000/svg" width="40" height="40"><path fill="#2660BD" d="M20 0C8.974 0 0 8.974 0 20s8.974 20 20 20 20-8.974 20-20S31.026 0 20 0zm0 1.38c10.267 0 18.62 8.353 18.62 18.62 0 10.267-8.353 18.62-18.62 18.62C9.733 38.62 1.38 30.268 1.38 20 1.38 9.733 9.732 1.38 20 1.38zm-.302 2.763a15.912 15.912 0 00-10.916 4.64C2.6 14.967 2.6 25.03 8.782 31.214a.69.69 0 00.978-.975c-5.649-5.647-5.646-14.833 0-20.48A14.532 14.532 0 0122.303 5.7a.69.69 0 00.219-1.363 15.585 15.585 0 00-2.824-.194zm5.582.951a.685.685 0 00-.614.447.689.689 0 00.404.89c.49.183.975.393 1.45.63a.69.69 0 00.62-1.231 15.884 15.884 0 00-1.588-.693.73.73 0 00-.272-.043zm3.985 2.269a.687.687 0 00-.342 1.226c.46.36.905.756 1.317 1.171 5.649 5.647 5.649 14.833 0 20.48a.693.693 0 00.49 1.18c.175 0 .353-.07.488-.202 6.182-6.186 6.182-16.25 0-22.436a16.67 16.67 0 00-1.444-1.28.695.695 0 00-.51-.14zM20 9.655a.688.688 0 00-.69.69v2.069h-.69a3.451 3.451 0 00-3.448 3.448v1.38a3.451 3.451 0 003.449 3.448h2.758c1.14 0 2.07.93 2.07 2.069v1.379c0 1.14-.93 2.069-2.07 2.069h-.69v-4.138a.688.688 0 00-.689-.69.688.688 0 00-.69.69v4.138h-.69a2.073 2.073 0 01-2.068-2.07.688.688 0 00-.69-.689.688.688 0 00-.69.69 3.451 3.451 0 003.449 3.448h.69v2.07c0 .382.306.689.689.689.383 0 .69-.307.69-.69v-2.069h.69a3.451 3.451 0 003.448-3.448v-1.38a3.451 3.451 0 00-3.449-3.448h-.69v-4.138a.688.688 0 00-.689-.69.688.688 0 00-.69.69v4.138h-.69a2.073 2.073 0 01-2.068-2.069v-1.379c0-1.14.93-2.069 2.069-2.069h2.758c1.14 0 2.07.93 2.07 2.07 0 .382.306.689.689.689.382 0 .69-.307.69-.69a3.451 3.451 0 00-3.449-3.448h-.69v-2.07A.688.688 0 0020 9.656zm-6.638 21.652a.684.684 0 00-.682.339l-.69 1.193a.69.69 0 00.596 1.035.686.686 0 00.596-.345l.69-1.193a.688.688 0 00-.51-1.03zm13.276 0a.691.691 0 00-.51 1.032l.69 1.193a.686.686 0 00.94.25.685.685 0 00.251-.94l-.69-1.193a.69.69 0 00-.681-.342zM16.425 32.65a.695.695 0 00-.574.506l-.355 1.334a.69.69 0 001.333.355l.358-1.333a.69.69 0 00-.762-.862zm7.153 0a.69.69 0 00-.765.862l.358 1.333a.69.69 0 001.333-.355l-.355-1.334a.695.695 0 00-.571-.506zM20 33.103a.688.688 0 00-.69.69v1.38c0 .382.307.69.69.69.383 0 .69-.308.69-.69v-1.38a.688.688 0 00-.69-.69z"/></svg>