<svg xmlns="http://www.w3.org/2000/svg" xmlns:xlink="http://www.w3.org/1999/xlink" width="40" height="38"><defs><path id="a" d="M0 0h40v40H0z"/></defs><g fill="none" fill-rule="evenodd" transform="translate(0 -1)"><mask id="b" fill="#fff"><use xlink:href="#a"/></mask><g fill="#2660BD" fill-rule="nonzero" mask="url(#b)"><path d="M16.774 1.333c-1.421 0-3.452.444-4.715 1.296-2.402.085-4.047 1.774-4.315 4.448-.166 1.65-.015 2.832.086 3.614.035.272.073.58.06.67-.02.119-.04.24-.057.363-.106.005-.2.02-.283.043-.58.156-.987.673-1.149 1.459-.128.63-.088 1.396.116 2.157.345 1.288 1.069 2.256 1.86 2.553a14.95 14.95 0 001.754 3.612l-5.948 3.445A8.406 8.406 0 000 32.248v4.57a1.94 1.94 0 001.935 1.935h29.678a1.94 1.94 0 001.935-1.936v-1.935h4.517A1.94 1.94 0 0040 32.946v-2.298a7.075 7.075 0 00-3.24-5.958l-6.52-4.216c.73-.94 1.345-2.064 1.746-3.264.615-.267 1.152-1 1.414-1.988.158-.592.191-1.19.088-1.684-.129-.64-.486-1.083-.975-1.214a.653.653 0 00-.106-.023 7.402 7.402 0 00-.353-1.343c.116.028.24.068.348.113a.646.646 0 00.88-.733c-.795-3.632-3.489-5.799-7.208-5.799h-.48a6.64 6.64 0 00-.768.05c-1.719-2.086-4.284-3.256-7.407-3.256h-.645zm0 1.29h.645c3.917 0 6.744 2.002 7.904 5.537-.444-.05-.905.003-1.223.31-.247.235-.479.686-.186 1.482.398 1.081.542 1.722.582 2.629a.652.652 0 00.35.544c.207.103.454.09.648-.035.103-.066.159-.076.171-.076.028.013.149.124.22.469.088.433.05 1.003-.099 1.565-.32 1.19-.927 1.691-1.119 1.691a.646.646 0 00-.617.461c-1.089 3.66-3.937 7.36-7.276 7.36s-6.187-3.703-7.273-7.36a.649.649 0 00-.62-.46c-.189 0-.799-.502-1.116-1.692-.152-.562-.187-1.132-.099-1.565.073-.36.2-.466.215-.469.002 0 .058 0 .176.076a.649.649 0 00.645.035.647.647 0 00.35-.544c.016-.338.053-.673.111-.996.048-.277.008-.587-.053-1.058-.093-.723-.231-1.817-.08-3.322.206-2.059 1.414-3.291 3.24-3.291a.658.658 0 00.389-.129c.882-.662 2.651-1.161 4.115-1.161zm8.911 3.206h.389c2.757 0 4.773 1.366 5.66 3.79-.29.006-.575.079-.791.285-.22.21-.429.603-.18 1.28.29.792.394 1.256.427 1.913a.642.642 0 00.98.517c.08.184.151.645-.015 1.275-.2.739-.572 1.11-.676 1.14a.649.649 0 00-.62.458c-.6 2.019-1.852 3.836-3.268 4.738a.644.644 0 00-.194.892.643.643 0 00.89.194 6.92 6.92 0 001.098-.88c.028.026.045.056.078.074l6.595 4.269a5.787 5.787 0 012.652 4.874v2.298c0 .356-.29.645-.645.645h-4.517v-1.29c.358 0 .646-.29.646-.645v-1.29a.645.645 0 00-.646-.646.646.646 0 00-.36.124 8.407 8.407 0 00-3.823-4.854l-5.948-3.445a14.981 14.981 0 001.754-3.609c.79-.297 1.515-1.265 1.858-2.553.204-.76.247-1.527.118-2.157-.161-.786-.57-1.303-1.149-1.46a1.449 1.449 0 00-.282-.042c-.091-.69-.265-1.336-.593-2.218a1.073 1.073 0 00-.022-.068c.227.018.592.111.89.232a.64.64 0 00.662-.1.646.646 0 00.214-.633 10.76 10.76 0 00-1.182-3.108zm-12.67.746c-.381.036-.74.237-.961.575l-1.036 1.57a.646.646 0 001.079.71l1.036-1.57 1.008.492a13.617 13.617 0 005.93 1.368h1.65a.645.645 0 100-1.29h-1.65a12.29 12.29 0 01-5.366-1.24l-1.008-.49a1.304 1.304 0 00-.683-.124zm-2.108 16.01c1.57 1.916 3.612 3.264 5.867 3.264 2.256 0 4.295-1.348 5.865-3.26l6.078 3.518a7.119 7.119 0 013.541 6.144v4.566c0 .356-.29.645-.645.645H1.935a.646.646 0 01-.645-.645v-4.569a7.123 7.123 0 013.541-6.141l6.076-3.521zm.746 3.264a.647.647 0 00-.33 1.222l5.161 2.581a.66.66 0 00.58 0l5.161-2.58a.647.647 0 00.288-.867.647.647 0 00-.867-.287l-4.872 2.437-4.871-2.437a.683.683 0 00-.25-.069zm25.121 3.871a.645.645 0 00-.645.646v1.29a.645.645 0 101.29 0v-1.29a.645.645 0 00-.645-.646zM3.871 33.591a.645.645 0 00-.645.646v1.29a.645.645 0 101.29 0v-1.29a.645.645 0 00-.645-.646zm3.226 0a.645.645 0 00-.645.646v1.29a.645.645 0 101.29 0v-1.29a.645.645 0 00-.645-.646zm3.226 0a.645.645 0 00-.646.646v1.29a.645.645 0 101.29 0v-1.29a.645.645 0 00-.644-.646zm3.225 0a.645.645 0 00-.645.646v1.29a.645.645 0 101.29 0v-1.29a.645.645 0 00-.645-.646zm3.226 0a.645.645 0 00-.645.646v1.29a.645.645 0 101.29 0v-1.29a.645.645 0 00-.645-.646zm3.226 0a.645.645 0 00-.645.646v1.29a.645.645 0 101.29 0v-1.29A.645.645 0 0020 33.59zm3.226 0a.645.645 0 00-.645.646v1.29a.645.645 0 101.29 0v-1.29a.645.645 0 00-.645-.646zm3.226 0a.645.645 0 00-.646.646v1.29a.645.645 0 101.29 0v-1.29a.645.645 0 00-.644-.646zm3.225 0a.645.645 0 00-.645.646v1.29a.645.645 0 101.29 0v-1.29a.645.645 0 00-.645-.646z"/></g></g></svg>