<svg xmlns="http://www.w3.org/2000/svg" xmlns:xlink="http://www.w3.org/1999/xlink" width="40" height="40"><defs><path id="a" d="M0 0h40v40H0z"/></defs><g fill="none" fill-rule="evenodd"><mask id="b" fill="#fff"><use xlink:href="#a"/></mask><path fill="#2660BD" fill-rule="nonzero" d="M19.999.667c-.614 0-1.23.162-1.777.49L1.017 11.409A2.073 2.073 0 000 13.198c0 .741.383 1.412 1.017 1.791l2.825 1.683-2.825 1.682A2.073 2.073 0 000 20.144c0 .741.383 1.411 1.017 1.791l2.825 1.682L1.017 25.3A2.073 2.073 0 000 27.09c0 .74.383 1.41 1.017 1.79l17.205 10.254a3.48 3.48 0 003.556 0L38.98 28.88A2.07 2.07 0 0040 27.09c0-.742-.383-1.412-1.02-1.792l-2.825-1.682 2.825-1.682a2.073 2.073 0 001.017-1.79c0-.741-.382-1.411-1.017-1.791l-2.825-1.682 2.825-1.683a2.073 2.073 0 001.017-1.79c0-.741-.382-1.411-1.017-1.791L21.778 1.158a3.46 3.46 0 00-1.78-.491zm0 1.389c.369 0 .738.097 1.066.296l17.204 10.25c.307.182.34.477.34.597s-.033.415-.34.597L20.354 24.472a.696.696 0 01-.71 0L1.727 13.796a.681.681 0 01-.339-.597c0-.12.033-.415.34-.597l17.203-10.25A2.06 2.06 0 0120 2.056zM6.107 11.81a.694.694 0 00-.694.694v1.39a.694.694 0 101.389 0v-1.39a.694.694 0 00-.695-.694zm3.473 0a.694.694 0 00-.694.694v1.39a.694.694 0 101.389 0v-1.39a.694.694 0 00-.695-.694zm3.473 0a.694.694 0 00-.695.694v1.39a.694.694 0 101.39 0v-1.39a.694.694 0 00-.695-.694zm3.473 0a.694.694 0 00-.695.694v1.39a.694.694 0 101.39 0v-1.39a.694.694 0 00-.695-.694zm3.473 0a.694.694 0 00-.695.694v1.39a.694.694 0 101.39 0v-1.39a.694.694 0 00-.695-.694zm3.472 0a.694.694 0 00-.694.694v1.39a.694.694 0 101.389 0v-1.39a.694.694 0 00-.695-.694zm3.473 0a.694.694 0 00-.694.694v1.39a.694.694 0 101.389 0v-1.39a.694.694 0 00-.695-.694zm3.473 0a.694.694 0 00-.694.694v1.39a.694.694 0 101.389 0v-1.39a.694.694 0 00-.695-.694zm3.473 0a.694.694 0 00-.695.694v1.39a.694.694 0 101.39 0v-1.39a.694.694 0 00-.695-.694zM5.198 17.48l13.734 8.186a2.084 2.084 0 002.13 0L34.8 17.48l3.467 2.067c.307.182.34.478.34.597 0 .12-.03.415-.337.597L21.065 30.994a2.086 2.086 0 01-2.133 0L1.728 20.741a.681.681 0 01-.339-.597c0-.119.033-.415.34-.597l3.47-2.067zm0 6.946l13.02 7.762a3.483 3.483 0 003.56 0l13.02-7.762 3.471 2.067c.307.182.34.478.34.597 0 .12-.033.415-.34.597L21.065 37.94a2.09 2.09 0 01-2.133 0L1.728 27.687a.681.681 0 01-.339-.597c0-.12.033-.415.34-.597l3.47-2.067z" mask="url(#b)"/></g></svg>