<svg xmlns="http://www.w3.org/2000/svg" xmlns:xlink="http://www.w3.org/1999/xlink" width="40" height="32"><defs><path id="a" d="M0 0h40v40H0z"/></defs><g fill="none" fill-rule="evenodd" transform="translate(0 -4)"><mask id="b" fill="#fff"><use xlink:href="#a"/></mask><path fill="#2660BD" fill-rule="nonzero" d="M2 4C.898 4 0 4.898 0 6v28c0 1.102.898 2 2 2h36c1.102 0 2-.898 2-2V6c0-1.102-.898-2-2-2H2zm0 1.333h36c.367 0 .667.3.667.667v28c0 .367-.3.667-.667.667H2A.668.668 0 011.333 34V6c0-.367.3-.667.667-.667zm18 4.042c-6.719 0-11.177 5.737-12.781 8.203a2 2 0 000 2.177C8.823 22.221 13.28 27.958 20 27.958s11.177-5.737 12.781-8.203a2 2 0 000-2.177C31.177 15.112 26.72 9.375 20 9.375zm0 1.333c6.237 0 10.503 5.813 11.664 7.597.143.224.146.5 0 .724-1.159 1.78-5.427 7.596-11.664 7.596S9.495 20.81 8.336 19.029a.659.659 0 010-.724c1.159-1.782 5.427-7.597 11.664-7.597zM20 12a6.673 6.673 0 00-6.667 6.667A6.673 6.673 0 0020 25.333a6.673 6.673 0 006.667-6.666A6.673 6.673 0 0020 12zm0 1.333a5.34 5.34 0 015.333 5.334A5.34 5.34 0 0120 24a5.34 5.34 0 01-5.333-5.333A5.34 5.34 0 0120 13.333zm0 2a3.336 3.336 0 00-3.333 3.334A3.336 3.336 0 0020 22a3.336 3.336 0 003.333-3.333A3.336 3.336 0 0020 15.333zm0 1.334c1.102 0 2 .898 2 2 0 1.101-.898 2-2 2-1.102 0-2-.899-2-2 0-1.102.898-2 2-2zm-16.667 14c-.37 0-.666.3-.666.666v1.334a.666.666 0 101.333 0v-1.334a.666.666 0 00-.667-.666zm3.334 0c-.37 0-.667.3-.667.666v1.334a.666.666 0 101.333 0v-1.334a.666.666 0 00-.666-.666zm3.333 0c-.37 0-.667.3-.667.666v1.334a.666.666 0 101.334 0v-1.334a.666.666 0 00-.667-.666zm3.333 0c-.37 0-.666.3-.666.666v1.334a.666.666 0 101.333 0v-1.334a.666.666 0 00-.667-.666zm3.334 0c-.37 0-.667.3-.667.666v1.334a.666.666 0 101.333 0v-1.334a.666.666 0 00-.666-.666zm3.333 0c-.37 0-.667.3-.667.666v1.334a.666.666 0 101.334 0v-1.334a.666.666 0 00-.667-.666zm3.333 0c-.37 0-.666.3-.666.666v1.334a.666.666 0 101.333 0v-1.334a.666.666 0 00-.667-.666zm3.334 0c-.37 0-.667.3-.667.666v1.334a.666.666 0 101.333 0v-1.334a.666.666 0 00-.666-.666zm3.333 0c-.37 0-.667.3-.667.666v1.334a.666.666 0 101.334 0v-1.334a.666.666 0 00-.667-.666zm3.333 0c-.37 0-.666.3-.666.666v1.334a.666.666 0 101.333 0v-1.334a.666.666 0 00-.667-.666zm3.334 0c-.37 0-.667.3-.667.666v1.334a.666.666 0 101.333 0v-1.334a.666.666 0 00-.666-.666z" mask="url(#b)"/></g></svg>