<svg xmlns="http://www.w3.org/2000/svg" width="40" height="38"><path fill="#2660BD" d="M2.143 0C.963 0 0 .963 0 2.143V35c0 1.18.963 2.143 2.143 2.143h35.714C39.037 37.143 40 36.18 40 35V2.143C40 .963 39.037 0 37.857 0H2.143zm0 1.429h15V20H1.429V2.143c0-.394.32-.714.714-.714zm16.428 0h19.286c.394 0 .714.32.714.714v9.286h-20v-10zm0 11.428h20V35c0 .393-.32.714-.714.714H18.571V12.857zM1.43 21.43h15.714v14.285h-15A.716.716 0 011.429 35V21.429zm2.142 10a.714.714 0 00-.714.714v1.428a.714.714 0 101.429 0v-1.428a.714.714 0 00-.715-.714zm3.572 0a.714.714 0 00-.714.714v1.428a.714.714 0 101.428 0v-1.428a.714.714 0 00-.714-.714zm3.571 0a.714.714 0 00-.714.714v1.428a.714.714 0 101.429 0v-1.428a.714.714 0 00-.715-.714zm3.572 0a.714.714 0 00-.715.714v1.428a.714.714 0 101.429 0v-1.428a.714.714 0 00-.714-.714zm7.143 0a.714.714 0 00-.715.714v1.428a.714.714 0 101.429 0v-1.428a.714.714 0 00-.714-.714zm3.571 0a.714.714 0 00-.714.714v1.428a.714.714 0 101.428 0v-1.428a.714.714 0 00-.714-.714zm3.571 0a.714.714 0 00-.714.714v1.428a.714.714 0 101.429 0v-1.428a.714.714 0 00-.715-.714zm3.572 0a.714.714 0 00-.714.714v1.428a.714.714 0 101.428 0v-1.428a.714.714 0 00-.714-.714zm3.571 0a.714.714 0 00-.714.714v1.428a.714.714 0 101.429 0v-1.428a.714.714 0 00-.715-.714z"/></svg>