<svg xmlns="http://www.w3.org/2000/svg" xmlns:xlink="http://www.w3.org/1999/xlink" width="40" height="33"><defs><path id="a" d="M0 0h40v40H0z"/></defs><g fill="none" fill-rule="evenodd" transform="translate(0 -4)"><mask id="b" fill="#fff"><use xlink:href="#a"/></mask><path fill="#2660BD" fill-rule="nonzero" d="M1.875 4A1.842 1.842 0 000 5.875c0 .813.5 1.501 1.25 1.75v17.75A1.82 1.82 0 000 27.125v3.75c0 1.062.813 1.875 1.875 1.875h3.188c.313 2.124 2.125 3.75 4.312 3.75 2.188 0 4.001-1.626 4.314-3.75h13.872c.313 2.124 2.127 3.75 4.314 3.75 2.188 0 4.001-1.626 4.314-3.75h1.936A1.842 1.842 0 0040 30.875v-3.75c0-.813-.562-1.501-1.25-1.75v-2.5c0-.625-.188-1.187-.5-1.688l-4.5-6.999a3.153 3.153 0 00-2.625-1.438H30V11.5c0-.376-.249-.625-.625-.625s-.625.249-.625.625v1.25h-2.5V7.625a1.82 1.82 0 001.25-1.75A1.842 1.842 0 0025.625 4H1.875zm0 1.25h23.75c.376 0 .625.249.625.625s-.249.625-.625.625H1.875c-.376 0-.625-.249-.625-.625s.249-.625.625-.625zm.625 2.5H25V19H2.5v-5h15.625c.376 0 .625-.249.625-.625s-.249-.625-.625-.625H2.5v-5zm18.125 5c-.376 0-.625.249-.625.625s.249.625.625.625h2.5c.376 0 .625-.249.625-.625s-.249-.625-.625-.625h-2.5zM26.25 14h4.875c.625 0 1.25.313 1.563.876l4.5 6.998c.187.312.312.625.312 1v2.376H26.25V14zM4.375 15.25c-.376 0-.625.249-.625.625v1.25c0 .376.249.625.625.625S5 17.501 5 17.125v-1.25c0-.376-.249-.625-.625-.625zm3.125 0c-.376 0-.625.249-.625.625v1.25c0 .376.249.625.625.625s.625-.249.625-.625v-1.25c0-.376-.249-.625-.625-.625zm3.125 0c-.376 0-.625.249-.625.625v1.25c0 .376.249.625.625.625s.625-.249.625-.625v-1.25c0-.376-.249-.625-.625-.625zm3.125 0c-.376 0-.625.249-.625.625v1.25c0 .376.249.625.625.625s.625-.249.625-.625v-1.25c0-.376-.249-.625-.625-.625zm3.125 0c-.376 0-.625.249-.625.625v1.25c0 .376.249.625.625.625s.625-.249.625-.625v-1.25c0-.376-.249-.625-.625-.625zm3.125 0c-.376 0-.625.249-.625.625v1.25c0 .376.249.625.625.625s.625-.249.625-.625v-1.25c0-.376-.249-.625-.625-.625zm3.125 0c-.376 0-.625.249-.625.625v1.25c0 .376.249.625.625.625s.625-.249.625-.625v-1.25c0-.376-.249-.625-.625-.625zm5.625.061c-.688 0-1.25.564-1.25 1.25v3.75c0 .625.562 1.189 1.25 1.189h4.5c.437 0 .876-.249 1.064-.625.186-.376.186-.874-.064-1.25l-2.375-3.75a1.226 1.226 0 00-1.062-.564H28.75zm0 1.189h2.126l2.374 3.75h-4.5V16.5zM2.5 20.25H25v5H2.5v-5zm25.625 2.5c-.376 0-.625.249-.625.625s.249.625.625.625h1.25c.376 0 .625-.249.625-.625s-.249-.625-.625-.625h-1.25zM1.875 26.5h36.25c.376 0 .625.249.625.625v3.75c0 .376-.249.625-.625.625h-1.936c-.313-2.124-2.127-3.75-4.314-3.75-2.188 0-4.001 1.626-4.314 3.75H13.689c-.313-2.124-2.127-3.75-4.314-3.75-2.188 0-3.999 1.626-4.312 3.75H1.875c-.376 0-.625-.249-.625-.625v-3.75c0-.376.249-.625.625-.625zm7.5 2.5a3.094 3.094 0 013.125 3.125 3.094 3.094 0 01-3.125 3.125 3.094 3.094 0 01-3.125-3.125A3.094 3.094 0 019.375 29zm22.5 0A3.094 3.094 0 0135 32.125a3.094 3.094 0 01-3.125 3.125 3.094 3.094 0 01-3.125-3.125A3.094 3.094 0 0131.875 29zm-22.5 1.875a1.25 1.25 0 10-.001 2.499 1.25 1.25 0 00.001-2.499zm22.5 0a1.25 1.25 0 10-.001 2.499 1.25 1.25 0 00.001-2.499z" mask="url(#b)"/></g></svg>