<svg id="Слой_1" data-name="Слой 1" xmlns="http://www.w3.org/2000/svg" viewBox="0 0 254.22 247.39"><defs><style>.cls-2{fill:#446990}.cls-5{fill:#bdc5d8;fill-opacity:.83}</style></defs><g id="Слой_1-2" data-name="Слой_1"><g id="_2770791274096" data-name="2770791274096"><text transform="matrix(.98 0 0 1 161.08 114.03)" style="isolation:isolate" fill="#446990" font-size="19" font-family="Verdana,Verdana">концепт</text><path class="cls-2" d="M14.31 8.51h5.53a9.2 9.2 0 009 9.41 9.2 9.2 0 009-9.41h2.72v.06a9 9 0 1018 0v-.06h21.23a9 9 0 1018 0h2.71v.09a9 9 0 1018 0v-.09h2.45a9 9 0 1018 0h2.72v.09a9 9 0 1018 0v-.09h5.8c.59 43.74-19.78 86.69-39.2 102.1C75.91 150.44 17.2 122 57 247.39H14.31V8.51z"/><path d="M14.31 8.51h5.53a9.2 9.2 0 009 9.41 9.2 9.2 0 009-9.41h2.72v.06a9 9 0 1018 0v-.06h21.23a9 9 0 1018 0h2.71v.09a9 9 0 1018 0v-.09h2.45a9 9 0 1018 0h2.72v.09a9 9 0 1018 0v-.09h5.8c-6.7 47.09-24.75 83.36-47.36 99.18C73.28 138.94-.34 121.14 33.72 208.42c4.44 11.36 13.57 24.23 23.25 39H14.31V8.51z" fill="#fefefe" fill-opacity=".77"/><path d="M14.32 8.51h5.52a9.2 9.2 0 009 9.41 9.2 9.2 0 009-9.41h2.71v.06a9 9 0 1018 0v-.06H79.8a9 9 0 1018 0h2.72v.09a9 9 0 1018 0v-.09h2.45a9 9 0 1018 0h2.71v.09a9 9 0 1018 0v-.09h5.8C139.65 189.09-72.69 54.75 57 247.39H14.32V8.51z" fill="#afb9d0" fill-opacity=".6"/><path class="cls-2" d="M3.7 16.79h10.71v230.6H3.7zM83.4 98h-3.5a16.08 16.08 0 01-11.34-4.18 13.26 13.26 0 01-4.47-10.09V4.9L75 0v89.83c0 3.73 1.63 5.6 4.92 5.6h3.48zm36.54-13.57a13.23 13.23 0 01-4.48 10.14 16 16 0 01-11.28 4.13 16.17 16.17 0 01-11.36-4.13 13.28 13.28 0 01-4.5-10.17V38.78a13.26 13.26 0 014.5-10.16 16.13 16.13 0 0111.36-4.13 16 16 0 0111.28 4.13 13.23 13.23 0 014.48 10.14v23.93H99.23v27.84c0 3.73 1.66 5.6 5 5.6s4.85-1.87 4.85-5.6V75.7h10.91v8.68zM109 60.17V32.6c0-3.73-1.61-5.59-4.85-5.59s-5 1.86-5 5.59v27.57zm48.81-12.73h-10.89V32.6c0-3.54-1.12-5.31-3.33-5.31a6.09 6.09 0 00-4.36 2.37v65.77h3.5V98h-17.92v-2.57h3.5V27.71h-3.5v-2.52h14.42v2a11.3 11.3 0 017.69-2.66q10.92 0 10.92 12.85v10.1zm18.35-30.65h-10.88V0h10.91zM179.69 98h-17.91v-2.57h3.5V27.71h-3.5v-2.52h14.41v70.24h3.5V98zm36.64-13.6a13.36 13.36 0 01-4.48 10.17 16 16 0 01-11.29 4.13 16.19 16.19 0 01-11.36-4.13 13.31 13.31 0 01-4.5-10.17V38.78a13.29 13.29 0 014.5-10.16 16.15 16.15 0 0111.36-4.13 16 16 0 0111.29 4.13 13.34 13.34 0 014.48 10.16zm-10.92 6.18V32.6c0-3.73-1.61-5.59-4.85-5.59s-4.94 1.86-4.94 5.59v57.93q0 5.59 4.94 5.6c3.24 0 4.85-1.87 4.85-5.6zm48.81-43.09h-10.91V32.6c0-3.54-1.12-5.31-3.34-5.31a6.12 6.12 0 00-4.36 2.37v65.77h3.5V98H221.2v-2.57h3.5V27.71h-3.5v-2.52h14.41v2a11.34 11.34 0 017.7-2.66q10.92 0 10.91 12.85v10.1z"/><path class="cls-2" d="M9.52 7.37h155.87v3.39H9.52zm179.39 114.51H166a9.79 9.79 0 00-9.77 9.76v37.63A9.8 9.8 0 00166 179h45a9.79 9.79 0 009.76-9.77v-15.5a32 32 0 00-31.89-31.89zm-69.77-.07H142a9.79 9.79 0 019.77 9.77v37.63A9.79 9.79 0 01142 179H97a9.79 9.79 0 01-9.77-9.76v-15.5a32 32 0 0131.91-31.93z"/><path class="cls-2" d="M225.63 184.79c1.28 4.51 5.07 14.66 1.63 18.14-13.81 13.93-31.56 2.14-40.22 0-21.82-5.4-42.76-5.22-65.43 0-8.69 2-26.4 13.93-40.22 0-3.44-3.48.35-13.63 1.63-18.14 5.81-20.49-1.13-30.31-22.89-25.49-13 2.88 8.62 27.9-2.75 54.4-3.71 8.64 2.23 13.26 10.89 15.52 5.18 1.35 27.3-.49 31.34-.29s17.26-.06 17.26-.06l18.93-.25 18.53-.2 18.52.2 18.94.25s13.22.26 17.25.06 26.16 1.64 31.35.29c8.66-2.26 14.59-6.88 10.88-15.52-11.37-26.5 10.27-51.52-2.74-54.4-21.77-4.82-28.71 5-22.9 25.49z"/><path class="cls-5" d="M99.23 181.76h46.82a6.38 6.38 0 016.36 6.36v11a6.38 6.38 0 01-6.36 6.37H87.56a6 6 0 01-6-6 17.74 17.74 0 0117.68-17.68z"/><path class="cls-2" d="M109.47 230.57c-3.29 7.33-3.44 8.53-3.93 16.33-20 1.8-18.3-3.48-12.07-9.09a89.2 89.2 0 0110.06-7.46l5.94.22z"/><path class="cls-5" d="M210.1 181.63h-46.81a6.38 6.38 0 00-6.36 6.36v11a6.38 6.38 0 006.36 6.37h58.48a6 6 0 006-6 17.73 17.73 0 00-17.68-17.68z"/><path class="cls-2" d="M199.4 230.55c3.3 7.33 3.44 8.53 3.94 16.33 20 1.79 18.29-3.48 12.06-9.09a89.2 89.2 0 00-10.06-7.46l-5.94.22z"/><path d="M182 148.25c0 5-5.06 4.39-7 5.46-3 1.67-1.92 1.58-2 1.91-1.58 2-3.45 3.17-.47 2 .46-.63 4.81-3 2.59-.11-.49.65-1.78-1.07-2.17.65-.35 1.52-2.62 3.38-3.75 4.56a2 2 0 00.91 2.1c.26 2.67.17 3 2.45 4.28.4.22-.8-1.78-.2-1.5 2.63 1.21.53 5.59 2.76 3.42.89-.87 0-.27.33.46.8 1.65 0-.22.73-.65s.54-1.16.54.08c0 1.56 1.08 2.69 1.11 2.16a5.46 5.46 0 000-.7c0-1 .49-1.77 1.18-.87.49.64.41 1.25.81.76a8.26 8.26 0 001.34-4.23c0-.89-.65-5 .51-4.5 2.09 1 2.2 1.66 2 4.36a9.1 9.1 0 01-.37 1.35c-1.14 3.31-2.51 13.13-1.87 16.63a7.58 7.58 0 00.93 2.59c.3.59.79 1.67.79 1.67a3.35 3.35 0 01.2.86c0 .32 0 1-.25 1.19s-1 .78-.64 1.29c.55.68 4.23.54 5.28.54.74 0 1.13 0 2.12-.11 4.72-.26 3.36-4.33 3.54-5.36s3.42 2 6.72.29c3.84-2-2.14 5.42 4 .11 2.49-2.14 4.68-.67 6.81 1.67 3 3.33-.08-5.63 3.54.79.55 1 .68 2.62 2.08 2.45l3.65-.08s2.41-.14 2.56-.19c1.32-.48.91-1.55.32-2.4s-1.6-3.3 0-1.64c.46.46.66.72 1.3.72s-.32-.7-.49-1c-1.67-3.15.38-15.57-3.85-20.16-1.81-2-.86-.89-2.07-4.1a27.34 27.34 0 00-5.79-9.65c-2.78-3 5.13 11.09 1.26 13.21-1.62.88-6.66.52-8.58.21a36.65 36.65 0 01-8.88-2.26c-2.51-1-2.69-1.76-4.14-4.42-2.06-3.75-.76-6.32-3.66-10.86-.71-1.11-2.73-2.92-3.64-4.8-.75-1.55-.57 5.83-2.54 1.87zM14.41 16.79H3.5V0h10.91zM17.91 98H0v-2.57h3.5V27.71H0v-2.52h14.41v70.24h3.5V98zm40.7 0H44.19V32.63c0-3.57-1.33-5.34-4-5.34a7 7 0 00-4.94 2.37v65.77h3.5V98H20.83v-2.57h3.49V27.71h-3.49v-2.52h14.41v2a11.81 11.81 0 018.07-2.66q11.79 0 11.8 12.85v58.05h3.5V98z" fill="#e34723"/></g></g></svg>